<svg xmlns="http://www.w3.org/2000/svg" width="466.096" height="466.097" viewBox="0 0 466.096 466.097">
  <g id="police_badge" data-name="police badge" transform="translate(-22.951 -22.952)">
    <path id="Exclusion_1" data-name="Exclusion 1" d="M-476.694,170.662h0c-.053-.012-5.574-1.278-14.477-3.833-8.278-2.375-21.329-6.4-36.5-12.076a447.908,447.908,0,0,1-48.116-21.185,311.839,311.839,0,0,1-49.334-31.161,129.364,129.364,0,0,1-29.509-32.6,129.544,129.544,0,0,1-16.665-39.5A128.093,128.093,0,0,1-674.138-12.4,126.3,126.3,0,0,1-662.19-54.62c.591-1.223,1.212-2.472,1.847-3.713,8.456-16.543,12.1-34.411,10.527-51.671-2.037-22.365-13.1-54.725-54.233-81.884l71.279-86.786a188.951,188.951,0,0,0,26.838,15.387c14.81,7.02,37.347,15.387,60.6,15.387,28.373,0,51.465-12.163,68.634-36.15,17.169,23.987,40.26,36.15,68.634,36.15,23.26,0,45.8-8.368,60.607-15.387a187.923,187.923,0,0,0,26.836-15.387l71.278,86.786c-41.131,27.157-52.194,59.518-54.232,81.884-1.573,17.256,2.067,35.123,10.527,51.671.631,1.233,1.252,2.482,1.846,3.713A126.3,126.3,0,0,1-279.248-12.4a128.084,128.084,0,0,1-2.845,42.706,129.531,129.531,0,0,1-16.665,39.5,129.356,129.356,0,0,1-29.51,32.6A311.829,311.829,0,0,1-377.6,133.568a447.862,447.862,0,0,1-48.117,21.186c-15.167,5.678-28.219,9.7-36.5,12.076C-471.248,169.42-476.64,170.649-476.694,170.662ZM-615.937-219.5h0l-23.046,27.787.01.008a103.721,103.721,0,0,1,7.626,7.649,153.238,153.238,0,0,1,16.342,21.573,134.818,134.818,0,0,1,15.2,33.393,113.537,113.537,0,0,1,4.2,43.117c-.013.1-1.317,9.839-4.373,24.089a228.247,228.247,0,0,1-10.6,34.8c-6.5,16.691-16.133,59.4,34.641,95.386a150.526,150.526,0,0,0,27.591,15.277c16.343,7.031,47.384,19.8,71.65,26.339,24.256-6.531,55.3-19.306,71.65-26.339A150.455,150.455,0,0,0-377.452,68.3c50.774-35.987,41.14-78.7,34.641-95.387a228.22,228.22,0,0,1-10.6-34.8c-3.071-14.317-4.36-23.993-4.373-24.089a113.532,113.532,0,0,1,4.2-43.117,134.821,134.821,0,0,1,15.2-33.394,153.243,153.243,0,0,1,16.342-21.574,101.244,101.244,0,0,1,7.636-7.657l-23.045-27.791c-22.893,11.636-46.114,17.537-69.019,17.538a131.461,131.461,0,0,1-29.175-3.268,128.245,128.245,0,0,1-22.118-7.193,96.2,96.2,0,0,1-18.933-10.463,96.739,96.739,0,0,1-18.937,10.462,128.324,128.324,0,0,1-22.119,7.193,131.476,131.476,0,0,1-29.173,3.271h-.008c-22.9,0-46.113-5.9-69.007-17.537Z" transform="translate(732.694 312.693)" fill="#fff"/>
    <path id="Subtraction_1" data-name="Subtraction 1" d="M-671.866-31.886h0a126.69,126.69,0,0,1,9.672-28.107c.6-1.233,1.224-2.482,1.85-3.713,8.456-16.542,12.1-34.41,10.527-51.67-2.037-22.365-13.1-54.725-54.233-81.884l71.279-86.786a188.834,188.834,0,0,0,26.832,15.38c14.808,7.016,37.342,15.38,60.6,15.38a89.232,89.232,0,0,0,18.576-1.9,183.1,183.1,0,0,1,5.251,43.588c0,.6,0,1.2-.009,1.787a131.762,131.762,0,0,1-25.4,2.468c-22.9,0-46.121-5.9-69.017-17.538l-23.046,27.788.01.007a103.494,103.494,0,0,1,7.626,7.65,153.216,153.216,0,0,1,16.342,21.573,134.815,134.815,0,0,1,15.2,33.393,113.537,113.537,0,0,1,4.2,43.118c-.013.1-1.292,9.726-4.373,24.089-.492,2.248-1.027,4.52-1.588,6.753a182.221,182.221,0,0,1-33.19,17.828,183.315,183.315,0,0,1-37.111,10.792Z" transform="translate(732.694 318.068)" fill="#fff"/>
    <path id="Subtraction_2" data-name="Subtraction 2" d="M-541.759,170.662V109.916c24.257-6.532,55.3-19.306,71.65-26.339A150.508,150.508,0,0,0-442.517,68.3c50.774-35.988,41.14-78.7,34.641-95.387a228.213,228.213,0,0,1-10.6-34.8c-3.071-14.317-4.36-23.993-4.373-24.089a113.531,113.531,0,0,1,4.2-43.117,134.819,134.819,0,0,1,15.2-33.394A153.242,153.242,0,0,1-387.1-184.059a100.47,100.47,0,0,1,7.636-7.657l-23.046-27.791c-22.892,11.636-46.114,17.537-69.018,17.538a131.456,131.456,0,0,1-29.175-3.268,128.246,128.246,0,0,1-22.117-7.193,96.2,96.2,0,0,1-18.933-10.463v-61.155c17.169,23.987,40.261,36.15,68.634,36.15,23.26,0,45.8-8.368,60.607-15.387a187.557,187.557,0,0,0,26.836-15.387l71.277,86.786C-355.534-164.732-366.6-132.37-368.635-110c-1.573,17.255,2.067,35.123,10.526,51.671.616,1.2,1.237,2.452,1.846,3.713A126.294,126.294,0,0,1-344.313-12.4a128.081,128.081,0,0,1-2.845,42.706,129.531,129.531,0,0,1-16.665,39.5,129.356,129.356,0,0,1-29.511,32.6,311.827,311.827,0,0,1-49.333,31.162,447.878,447.878,0,0,1-48.116,21.186c-15.166,5.677-28.218,9.7-36.5,12.076-8.925,2.561-14.422,3.82-14.476,3.833Z" transform="translate(797.759 312.693)" fill="#fff"/>
    <path id="Path_8" data-name="Path 8" d="M392.665,88.111c-32.293,16.415-64.481,20.952-95.668,13.482-23.346-5.591-37.387-16.2-37.517-16.3a5.691,5.691,0,0,0-6.96,0c-.551.426-55.948,42.079-133.184,2.819a5.692,5.692,0,0,0-6.962,1.44L89.327,117.343a5.7,5.7,0,0,0,.663,7.945c.472.407,47.127,41.416,41.445,100.776-.138,1.007-1.427,10.231-4.283,23.549a223.064,223.064,0,0,1-10.34,33.93c-6.984,17.936-17.392,63.79,36.654,102.1A156.461,156.461,0,0,0,182.1,401.5c15.554,6.692,44.325,18.542,68.207,25.428v30.931a5.693,5.693,0,0,0,11.386,0V426.928c23.882-6.886,52.653-18.736,68.206-25.428a156.438,156.438,0,0,0,28.635-15.861c54.048-38.308,43.638-84.16,36.654-102.1a223.17,223.17,0,0,1-10.34-33.93c-2.855-13.315-4.144-22.536-4.282-23.548-5.66-59.125,40.88-100.287,41.447-100.78a5.7,5.7,0,0,0,.66-7.942L399.627,89.551a5.7,5.7,0,0,0-6.962-1.44ZM369.243,227.267c.006.066.014.129.022.2.053.4,1.332,10,4.45,24.539a234.643,234.643,0,0,0,10.862,35.673c7.471,19.185,13.167,56.217-32.627,88.675a145.085,145.085,0,0,1-26.55,14.69c-15.867,6.828-45.694,19.109-69.4,25.668-23.706-6.559-53.533-18.84-69.4-25.668a145.085,145.085,0,0,1-26.55-14.69c-45.792-32.456-40.1-69.488-32.627-88.675A234.523,234.523,0,0,0,138.285,252c3.118-14.537,4.4-24.137,4.45-24.538.009-.065.016-.13.023-.2,5.325-55.032-29.1-94.636-41.258-106.765l16.769-20.222c41.8,19.99,77.277,17.784,99.962,12.248A125.6,125.6,0,0,0,256,96.712a125.608,125.608,0,0,0,37.77,15.816c22.681,5.535,58.161,7.745,99.962-12.248L410.5,120.5C398.344,132.631,363.917,172.235,369.243,227.267Z" fill="#fff"/>
    <path id="Path_5" data-name="Path 5" d="M256,297.429l-51.145,26.889,9.768-56.951-41.377-40.332,57.182-8.309L256,166.911l25.572,51.815,57.182,8.309-41.377,40.332,9.768,56.951Z" fill="#fff"/>
    <path id="Path_6" data-name="Path 6" d="M281.572,218.726,256,166.911h0V297.429h0l51.145,26.889-9.768-56.951,41.377-40.332Z" fill="#fff"/>
    <path id="Path_7" data-name="Path 7" d="M416.476,30.406a5.7,5.7,0,0,0-7.74-1c-.5.364-50.779,36.284-97.8,28.614-20.209-3.29-37.136-14.29-50.307-32.69a5.619,5.619,0,0,0-.556-.653c-.041-.042-.084-.082-.127-.123a5.656,5.656,0,0,0-1.632-1.1c-.058-.026-.115-.053-.174-.077a5.617,5.617,0,0,0-.929-.288c-.055-.012-.11-.02-.166-.03a5.156,5.156,0,0,0-2.09,0c-.056.01-.111.018-.166.03a5.616,5.616,0,0,0-.929.288c-.059.024-.116.051-.174.077a5.656,5.656,0,0,0-1.632,1.1c-.043.041-.086.081-.127.123a5.621,5.621,0,0,0-.556.653c-13.171,18.4-30.1,29.4-50.312,32.694-47.014,7.655-97.292-28.249-97.791-28.611a5.693,5.693,0,0,0-7.743.993l-71.28,86.787a5.692,5.692,0,0,0,1.263,8.364c31.5,20.8,48.9,46.926,51.7,77.649,1.475,16.184-1.958,32.976-9.927,48.563q-.984,1.923-1.9,3.829a133.591,133.591,0,0,0-9.514,88.72,135.954,135.954,0,0,0,48.2,75.261c62.256,48.812,147.093,68.514,150.674,69.328a5.688,5.688,0,0,0,2.526,0c3.581-.814,88.419-20.516,150.674-69.328a135.954,135.954,0,0,0,48.2-75.261,133.583,133.583,0,0,0-9.514-88.718q-.919-1.906-1.905-3.832c-7.969-15.587-11.4-32.379-9.927-48.562,2.8-30.723,20.194-56.847,51.7-77.649a5.692,5.692,0,0,0,1.263-8.364Zm6.977,171.766c-1.67,18.33,2.178,37.272,11.129,54.781q.924,1.806,1.787,3.6c24.808,51.4,9.9,114.511-35.458,150.071C344.725,454.672,266.835,474.848,256,477.5c-10.836-2.65-88.67-22.787-144.91-66.883-45.354-35.56-60.266-98.674-35.459-150.068q.865-1.791,1.789-3.6c8.95-17.5,12.8-36.448,11.128-54.78-2.062-22.628-12.8-54.9-51.564-82.548l64.043-77.976c13.961,9.082,58.1,34.719,101.812,27.622a83.745,83.745,0,0,0,47.469-24.931V68.62a5.693,5.693,0,1,0,11.386,0V44.339A83.745,83.745,0,0,0,309.162,69.27c43.71,7.09,87.855-18.544,101.812-27.622l64.043,77.976c-38.764,27.65-49.5,59.921-51.564,82.548Z" fill="#fff"/>
    <path id="Path_9" data-name="Path 9" d="M339.573,221.4l-54.22-7.88-24.248-49.131a5.692,5.692,0,0,0-10.21,0L226.647,213.52l-54.22,7.88a5.692,5.692,0,0,0-3.155,9.71l39.234,38.243-9.262,54a5.694,5.694,0,0,0,8.26,6l48.5-25.5,48.5,25.5a5.694,5.694,0,0,0,8.26-6l-9.262-54,39.234-38.243a5.692,5.692,0,0,0-3.155-9.71ZM293.4,263.29a5.692,5.692,0,0,0-1.637,5.039l7.818,45.581-40.935-21.52a5.7,5.7,0,0,0-5.3,0l-40.935,21.52,7.818-45.581a5.692,5.692,0,0,0-1.637-5.039l-33.116-32.28,45.766-6.651a5.688,5.688,0,0,0,4.286-3.113L256,179.774l20.468,41.472a5.688,5.688,0,0,0,4.286,3.113l45.766,6.651Z" fill="#fff"/>
  </g>
</svg>
